<svg width="25" height="24" viewBox="0 0 25 24" fill="none" xmlns="http://www.w3.org/2000/svg">
<path fill-rule="evenodd" clip-rule="evenodd" d="M16.6522 21L21.9082 15.744V8.256L16.6522 3H9.1642L3.9082 8.256V15.744L9.1642 21H16.6522ZM13.8922 12.984H11.9242V6.984H13.8922V12.984ZM12.9082 17.304C12.5562 17.304 12.2482 17.172 11.9842 16.908C11.7202 16.644 11.5882 16.336 11.5882 15.984C11.5882 15.632 11.7202 15.332 11.9842 15.084C12.2482 14.836 12.5562 14.712 12.9082 14.712C13.2602 14.712 13.5682 14.836 13.8322 15.084C14.0962 15.332 14.2282 15.632 14.2282 15.984C14.2282 16.336 14.0962 16.644 13.8322 16.908C13.5682 17.172 13.2602 17.304 12.9082 17.304Z" fill="#FC5258"/>
</svg>
