<svg width="148" height="42" viewBox="0 0 148 42" fill="none" xmlns="http://www.w3.org/2000/svg">
<path fill-rule="evenodd" clip-rule="evenodd" d="M0.948242 28.0933V41.44C0.948242 41.7493 1.19449 42 1.49824 42H48.6059C49.8387 42 50.8381 40.9824 50.8381 39.7272V38.7237C50.8381 38.0227 51.3963 37.4544 52.0848 37.4544C52.7733 37.4544 53.3315 38.0227 53.3315 38.7237V40.6678C53.3315 41.4036 53.9173 42 54.6399 42C55.3625 42 55.9482 41.4036 55.9482 40.6678V28.0933C55.9482 12.5778 43.6649 0 28.4482 0C13.2316 0 0.948242 12.5778 0.948242 28.0933Z" fill="#FF6F61"/>
<path fill-rule="evenodd" clip-rule="evenodd" d="M28.5401 12.04C34.2052 12.04 38.8068 16.7201 38.8068 22.4933C38.8068 28.2665 34.2102 32.9467 28.5401 32.9467H18.8234C18.5197 32.9467 18.2734 32.6959 18.2734 32.3867V22.4933C18.2734 16.7067 22.8751 12.04 28.5401 12.04ZM23.6818 19.5067C23.6818 19.3005 23.8489 19.1333 24.0551 19.1333H32.9334C33.1396 19.1333 33.3068 19.3005 33.3068 19.5067C33.3068 19.7128 33.1396 19.88 32.9334 19.88H24.0551C23.8489 19.88 23.6818 19.7128 23.6818 19.5067ZM24.0551 22.2133C23.8489 22.2133 23.6818 22.3805 23.6818 22.5867C23.6818 22.7928 23.8489 22.96 24.0551 22.96H32.9334C33.1396 22.96 33.3068 22.7928 33.3068 22.5867C33.3068 22.3805 33.1396 22.2133 32.9334 22.2133H24.0551ZM23.6818 25.6667C23.6818 25.4605 23.8489 25.2933 24.0551 25.2933H32.9334C33.1396 25.2933 33.3068 25.4605 33.3068 25.6667C33.3068 25.8728 33.1396 26.04 32.9334 26.04H24.0551C23.8489 26.04 23.6818 25.8728 23.6818 25.6667ZM46.6901 22.4C47.247 22.4 47.6984 21.9403 47.6984 21.3733C47.6984 20.8063 47.247 20.3467 46.6901 20.3467C46.1332 20.3467 45.6818 20.8063 45.6818 21.3733C45.6818 21.9403 46.1332 22.4 46.6901 22.4Z" fill="#4D1D1D"/>
<path d="M59.9482 21L146.736 21" stroke="black" stroke-opacity="0.1" stroke-width="1.5" stroke-linecap="round" stroke-linejoin="round" stroke-dasharray="2 4"/>
<circle cx="103.342" cy="21" r="14" fill="white"/>
<circle cx="103.343" cy="21" r="13.9999" fill="#21BF55" fill-opacity="0.2"/>
<circle cx="103.343" cy="21" r="8.74992" fill="white"/>
<path fill-rule="evenodd" clip-rule="evenodd" d="M103.343 12.2501C98.5182 12.2501 94.5928 16.1755 94.5928 21C94.5928 25.8245 98.5182 29.7499 103.343 29.7499C108.167 29.7499 112.093 25.8245 112.093 21C112.093 16.1755 108.167 12.2501 103.343 12.2501ZM108.233 18.8535L102.641 24.4017C102.312 24.7307 101.786 24.7526 101.435 24.4236L98.4743 21.7263C98.1234 21.3973 98.1015 20.8491 98.4085 20.4982C98.7375 20.1474 99.2857 20.1254 99.6366 20.4544L101.983 22.6035L106.983 17.6035C107.334 17.2526 107.882 17.2526 108.233 17.6035C108.584 17.9544 108.584 18.5026 108.233 18.8535Z" fill="#21BF55"/>
</svg>
