<svg width="17" height="16" viewBox="0 0 17 16" fill="none" xmlns="http://www.w3.org/2000/svg">
<path fill-rule="evenodd" clip-rule="evenodd" d="M3.82184 3.20644C3.60655 3.48329 3.62612 3.88363 3.88055 4.13803L7.77583 8.03326L3.88054 11.9285C3.60492 12.2041 3.60492 12.651 3.88055 12.9266L3.94703 12.9853C4.22387 13.2005 4.62418 13.181 4.87859 12.9266L8.77383 9.03126L12.6691 12.9266C12.9447 13.2022 13.3915 13.2022 13.6671 12.9266L13.7258 12.8601C13.9411 12.5832 13.9215 12.1829 13.6671 11.9285L9.77183 8.03326L13.6671 4.13802C13.9427 3.86243 13.9427 3.41555 13.6671 3.13996L13.6006 3.08125C13.3238 2.86598 12.9235 2.88556 12.6691 3.13999L8.77383 7.03526L4.87859 3.13997C4.60297 2.86435 4.15612 2.86435 3.88052 3.13999L3.82184 3.20644Z" fill="black" fill-opacity="0.8"/>
</svg>
