<svg width="368" height="425" viewBox="0 0 368 425" fill="none" xmlns="http://www.w3.org/2000/svg">
<g clip-path="url(#clip0)">
<rect x="165.464" y="74.3333" width="12.6207" height="4.20691" transform="rotate(-116.768 165.464 74.3333)" fill="#FC5258"/>
<rect width="15.3409" height="5.11364" transform="matrix(0.941068 0.338217 0.338217 -0.941068 37.8447 208.42)" fill="#FC5258"/>
<rect x="32.9814" y="246.855" width="12.6207" height="4.20691" transform="rotate(-116.768 32.9814 246.855)" fill="#FC5258"/>
<path d="M48.1373 169.181L50.9813 168.29L50.5688 171.093L52.9484 170.332L52.4627 172.937L55.1918 172.466" stroke="#228BE6"/>
<path d="M349.74 100.492L348.553 104.284L352.29 103.734L351.276 106.907L354.749 106.259L354.121 109.898" stroke="#228BE6"/>
<path d="M177.05 117.285L178.996 119.742L176.089 120.393L177.733 122.443L174.992 122.948L176.483 125.45" stroke="#228BE6"/>
<path d="M220.155 100.621L233.963 91.1131L236.02 97.9205L220.155 100.621Z" fill="#F0DF32"/>
<path d="M179.419 181.41L177.255 189.819L174.232 188.373L179.419 181.41Z" fill="#F0DF32"/>
<path d="M84.0221 -5.6008L93.6204 10.6609L86.7487 13.0844L84.0221 -5.6008Z" fill="#F0DF32"/>
<path d="M6.28928 217.204L6.41457 201.223L12.4561 202.46L6.28928 217.204Z" fill="#F0DF32"/>
<path d="M12.9254 136.574L23.2268 142.338L19.596 146.741L12.9254 136.574Z" fill="#FC5258"/>
<path d="M299.326 82.6194L292.557 76.2248L290.232 79.7682L299.326 82.6194Z" fill="#FC5258"/>
<path d="M285.665 197.816L290.186 191.84L293.322 195.406L285.665 197.816Z" fill="#FC5258"/>
<circle cx="11.9907" cy="130.45" r="1.57759" fill="#21BF55"/>
<circle cx="203.666" cy="91.8189" r="1.57759" fill="#21BF55"/>
<circle cx="318.973" cy="44.1022" r="2" fill="#21BF55"/>
<circle cx="366.891" cy="139.441" r="3.15518" fill="#21BF55"/>
<circle cx="30.8398" cy="189.528" r="2.10346" fill="#21BF55"/>
<circle cx="101.765" cy="59.7" r="3.68105" fill="#F69142"/>
<circle cx="187.737" cy="22.1582" r="2" fill="#F69142"/>
<circle cx="159.496" cy="151.297" r="1.5" fill="#F69142"/>
<circle cx="311.559" cy="106.145" r="1" fill="#F69142"/>
<circle cx="314.766" cy="199.609" r="4.20691" fill="#F69142"/>
<rect x="13.5264" y="99.1687" width="10.5173" height="5.25864" transform="rotate(-45.5869 13.5264 99.1687)" fill="#F69142"/>
<rect width="10.0138" height="4.99611" transform="matrix(0.661183 -0.750224 0.676329 0.736599 102.329 196.937)" fill="#F69142"/>
<rect x="254.186" y="25.609" width="10.5173" height="5.25864" transform="rotate(-45.5869 254.186 25.609)" fill="#F69142"/>
<rect x="355.215" y="240.631" width="10.5173" height="5.25864" transform="rotate(-9.58694 355.215 240.631)" fill="#F69142"/>
<rect width="5.92953" height="2.96477" transform="matrix(0.146309 0.989238 0.98924 -0.146309 356.45 168.364)" fill="#F69142"/>
<rect x="110.63" y="75.2413" width="3.15518" height="5.25864" transform="rotate(21.9912 110.63 75.2413)" fill="#FC5258"/>
<rect width="3.15518" height="5.25864" transform="matrix(-0.927242 0.374463 0.374463 0.927242 328.936 229.049)" fill="#FC5258"/>
<rect width="3.15518" height="5.25864" transform="matrix(-0.669245 0.743039 0.743044 0.669245 351.311 31.8392)" fill="#F69142"/>
<rect width="3.15518" height="5.25864" transform="matrix(0.927242 -0.374463 -0.374463 -0.927242 239.421 3.60788)" fill="#FC5258"/>
<rect x="37.5186" y="33.3212" width="12.6207" height="4.20691" transform="rotate(-116.768 37.5186 33.3212)" fill="#FC5258"/>
<path d="M-2.20378 70.8036C-2.20378 70.8036 4.52126 67.4541 6.04686 69.2097C6.88498 70.1742 7.51793 71.3424 6.76729 72.2915C6.18867 73.0231 5.35327 73.1164 4.37444 72.9445C2.30163 72.5805 2.33307 69.702 3.16513 67.9193C4.31396 65.4579 10.4123 66.9107 10.4123 66.9107" stroke="#9DE824" stroke-width="1.2"/>
<path d="M136.81 39.9045C136.81 39.9045 132.096 37.5568 131.027 38.7873C130.44 39.4633 129.996 40.2822 130.522 40.9474C130.928 41.4602 131.513 41.5256 132.199 41.4051C133.652 41.15 133.63 39.1324 133.047 37.8828C132.242 36.1576 127.967 37.1759 127.967 37.1759" stroke="#21BF55" stroke-width="1.2"/>
<path d="M351.151 213.315C351.151 213.315 356.753 216.105 358.024 214.643C358.723 213.839 359.25 212.866 358.625 212.076C358.143 211.466 357.447 211.388 356.631 211.532C354.904 211.835 354.931 214.233 355.624 215.718C356.581 217.768 361.661 216.558 361.661 216.558" stroke="#21BF55" stroke-width="1.2"/>
<path d="M340.685 148.092C340.685 148.092 333.195 147.505 332.438 149.704C332.022 150.913 331.873 152.233 332.924 152.832C333.735 153.293 334.544 153.067 335.388 152.541C337.173 151.427 336.066 148.77 334.626 147.429C332.639 145.577 327.529 149.208 327.529 149.208" stroke="#9DE824" stroke-width="1.2"/>
<path d="M232.312 164.651C232.312 164.651 235.663 160.589 237.141 161.278C237.952 161.657 238.691 162.224 238.481 163.046C238.319 163.679 237.81 163.977 237.135 164.146C235.704 164.504 234.903 162.652 234.928 161.273C234.962 159.37 239.281 158.561 239.281 158.561" stroke="#9DE824" stroke-width="1.2"/>
<path d="M63.9411 101.178C63.9411 101.178 61.816 98.9425 62.6951 97.6183C63.4337 96.5058 65.5802 97.7745 65.9645 96.5304C66.3537 95.2703 63.4949 95.6182 63.6342 94.3311C63.7808 92.9764 66.703 92.2611 66.703 92.2611" stroke="#BE1AFF" stroke-width="1.2"/>
<path d="M132.457 122.222C132.457 122.222 132.051 124.632 133.216 125.112C134.194 125.516 135.042 123.731 135.845 124.378C136.659 125.033 134.627 126.072 135.289 126.855C135.985 127.68 138.222 126.855 138.222 126.855" stroke="#BE1AFF" stroke-width="1.2"/>
<path d="M261.462 55.8668C261.462 55.8668 261.973 52.8255 260.504 52.2193C259.27 51.71 258.2 53.9621 257.185 53.1456C256.158 52.3186 258.723 51.0084 257.887 50.0192C257.008 48.9781 254.186 50.0192 254.186 50.0192" stroke="#BE1AFF" stroke-width="1.2"/>
<path d="M360.822 12.8378C360.822 12.8378 360.31 9.79641 361.779 9.19022C363.013 8.68096 364.084 10.9331 365.098 10.1166C366.125 9.28954 363.561 7.97931 364.396 6.99011C365.275 5.94902 368.097 6.99011 368.097 6.99011" stroke="#BE1AFF" stroke-width="1.2"/>
<path d="M11.6988 259.08C11.6988 259.08 12.2108 256.039 10.7415 255.432C9.50711 254.923 8.43696 257.175 7.42271 256.359C6.39535 255.532 8.95998 254.222 8.12476 253.232C7.24572 252.191 4.42306 253.232 4.42306 253.232" stroke="#BE1AFF" stroke-width="1.2"/>
<path d="M15.9948 1.105C15.9948 3.71884 20.1843 5.83777 17.2689 5.83777C14.3536 5.83777 11.9902 3.71884 11.9902 1.105C11.9902 -1.50884 14.3536 -3.62778 17.2689 -3.62778C20.1843 -3.62778 15.9948 -1.50884 15.9948 1.105Z" fill="#21BF55"/>
<path d="M248.469 119.03C249.656 121.359 246.885 125.149 249.483 123.825C252.08 122.502 253.224 119.541 252.037 117.212C250.851 114.883 247.783 114.068 245.185 115.392C242.588 116.715 247.283 116.701 248.469 119.03Z" fill="#21BF55"/>
<path d="M115.751 158.832C114.748 160.8 117.09 164.004 114.895 162.885C112.7 161.766 111.733 159.264 112.736 157.295C113.739 155.327 116.331 154.638 118.527 155.757C120.722 156.875 116.754 156.864 115.751 158.832Z" fill="#21BF55"/>
<path d="M45.1685 293.189C46.3551 290.86 43.5842 287.07 46.1818 288.393C48.7794 289.717 49.9232 292.678 48.7365 295.007C47.5499 297.336 44.4821 298.151 41.8845 296.827C39.2869 295.504 43.9818 295.518 45.1685 293.189Z" fill="#21BF55"/>
<path d="M94.5873 122.535C96.3211 122.71 98.0064 120.072 97.8117 122.006C97.6171 123.94 96.0538 125.366 94.32 125.191C92.5862 125.017 91.3384 123.308 91.5331 121.374C91.7277 119.44 92.8535 122.361 94.5873 122.535Z" fill="#228BE6"/>
<path d="M330.12 23.4565C331.55 21.6256 329.775 17.8487 331.818 19.4441C333.86 21.0396 334.355 23.8171 332.925 25.648C331.495 27.4789 328.68 27.6697 326.637 26.0743C324.595 24.4789 328.69 25.2874 330.12 23.4565Z" fill="#228BE6"/>
<path d="M151.051 200.497C151.958 201.658 150.833 204.052 152.127 203.04C153.422 202.029 153.736 200.268 152.829 199.108C151.923 197.947 150.138 197.826 148.844 198.838C147.549 199.849 150.145 199.337 151.051 200.497Z" fill="#228BE6"/>
<path d="M193.809 62.6195C192.217 63.3283 192.063 66.4544 191.272 64.6788C190.482 62.9033 191.131 60.8894 192.723 60.1806C194.315 59.4718 196.246 60.3366 197.037 62.1122C197.827 63.8877 195.401 61.9107 193.809 62.6195Z" fill="#228BE6"/>
<path d="M81.1571 130.205L82.3377 133.838H86.1583L83.0674 136.084L84.248 139.718L81.1571 137.472L78.0661 139.718L79.2468 136.084L76.1558 133.838H79.9764L81.1571 130.205Z" fill="#9DE824"/>
<path d="M364.876 54.934L367.274 57.699L370.115 55.3924L368.919 58.8511L372.337 60.1583L368.744 60.8521L369.321 64.4659L366.924 61.701L364.082 64.0076L365.278 60.5489L361.86 59.2417L365.453 58.5479L364.876 54.934Z" fill="#9DE824"/>
<path d="M298.475 247.866L300.094 250.459L303.06 249.719L301.095 252.061L302.715 254.653L299.881 253.508L297.916 255.849L298.13 252.8L295.296 251.655L298.261 250.916L298.475 247.866Z" fill="#9DE824"/>
<path d="M1.94998 177.792L1.32791 181.224L4.77099 180.662L1.90381 182.65L4.73586 184.687L1.30312 184.065L1.86518 187.508L-0.122267 184.641L-2.15945 187.473L-1.53739 184.04L-4.98046 184.602L-2.11328 182.615L-4.94534 180.578L-1.5126 181.2L-2.07466 177.757L-0.0872093 180.624L1.94998 177.792Z" fill="#9DE824"/>
<path d="M167.743 7.57913L168.615 11.0281L171.854 9.55906L169.701 12.3908L172.87 14.0079L169.313 14.0901L170.025 17.5756L167.743 14.8464L165.461 17.5756L166.173 14.0901L162.616 14.0079L165.785 12.3908L163.632 9.55906L166.872 11.0281L167.743 7.57913Z" fill="#9DE824"/>
<path d="M336.275 217.258L336.865 219.074H338.775L337.23 220.197L337.82 222.014L336.275 220.891L334.729 222.014L335.32 220.197L333.774 219.074H335.685L336.275 217.258Z" fill="#9DE824"/>
<path d="M31.0878 70.3642L31.7962 72.5443L34.0886 72.5443L32.234 73.8918L32.9424 76.0719L31.0878 74.7245L29.2332 76.0719L29.9416 73.8918L28.087 72.5443L30.3794 72.5443L31.0878 70.3642Z" fill="#F0DF32"/>
<path d="M285.563 155.71L288.426 157.947L291.437 155.915L290.195 159.329L293.058 161.565L289.427 161.439L288.185 164.852L287.183 161.36L283.553 161.234L286.564 159.202L285.563 155.71Z" fill="#F0DF32"/>
<path d="M332.169 77.7596L332.692 79.829L334.636 78.9476L333.344 80.6466L335.245 81.6169L333.111 81.6662L333.538 83.7575L332.169 82.12L330.8 83.7575L331.227 81.6662L329.093 81.6169L330.994 80.6466L329.702 78.9476L331.646 79.829L332.169 77.7596Z" fill="#F0DF32"/>
<path d="M58.4072 41.8708L58.931 37.3534L62.5822 39.6681L62.9984 35.8785L66.3289 38.1727L67.3661 34.0758" stroke="#228BE6"/>
<path d="M229.784 187.437L231.662 191.579L227.34 191.475L228.935 194.938L224.899 194.687L226.12 198.733" stroke="#228BE6"/>
<g filter="url(#filter0_f)">
<rect x="-6.2207" y="191.457" width="380.442" height="251.32" rx="86" fill="white"/>
</g>
</g>
<defs>
<filter id="filter0_f" x="-30.2207" y="167.457" width="428.442" height="299.32" filterUnits="userSpaceOnUse" color-interpolation-filters="sRGB">
<feFlood flood-opacity="0" result="BackgroundImageFix"/>
<feBlend mode="normal" in="SourceGraphic" in2="BackgroundImageFix" result="shape"/>
<feGaussianBlur stdDeviation="12" result="effect1_foregroundBlur"/>
</filter>
<clipPath id="clip0">
<rect width="368" height="425" fill="white"/>
</clipPath>
</defs>
</svg>
