<svg width="17" height="16" viewBox="0 0 17 16" fill="none" xmlns="http://www.w3.org/2000/svg">
<path fill-rule="evenodd" clip-rule="evenodd" d="M8.74056 4.66661C9.47694 4.66661 10.0739 4.06965 10.0739 3.33327C10.0739 2.59689 9.47694 1.99994 8.74056 1.99994C8.00418 1.99994 7.40723 2.59689 7.40723 3.33327C7.40723 4.06965 8.00418 4.66661 8.74056 4.66661ZM8.74056 9.33123C9.47694 9.33123 10.0739 8.73428 10.0739 7.9979C10.0739 7.26152 9.47694 6.66457 8.74056 6.66457C8.00418 6.66457 7.40723 7.26152 7.40723 7.9979C7.40723 8.73428 8.00418 9.33123 8.74056 9.33123ZM10.0739 12.6646C10.0739 13.4009 9.47694 13.9979 8.74056 13.9979C8.00418 13.9979 7.40723 13.4009 7.40723 12.6646C7.40723 11.9282 8.00418 11.3312 8.74056 11.3312C9.47694 11.3312 10.0739 11.9282 10.0739 12.6646Z" fill="black" fill-opacity="0.3"/>
</svg>
