<svg width="16" height="16" viewBox="0 0 16 16" fill="none" xmlns="http://www.w3.org/2000/svg">
<path fill-rule="evenodd" clip-rule="evenodd" d="M6.34561 8.53164L6.44849 8.5966C6.91489 8.89036 7.45905 9.03708 8.00305 9.03708C8.52657 9.03708 9.04929 8.89932 9.50321 8.62796L12.9357 12.4748C12.7426 12.5704 12.5262 12.6254 12.2966 12.6254H3.57121C3.31297 12.6254 3.07073 12.5568 2.86049 12.4377L6.34561 8.53164ZM13.7448 5.88163V11.1771C13.7448 11.5147 13.6277 11.8248 13.4335 12.0714L10.0491 8.27843L13.7448 5.88163ZM2.12305 5.87124L5.79649 8.1858L2.38641 12.0076C2.22097 11.7722 2.12305 11.4861 2.12305 11.1772V5.87124ZM12.2966 3.37131C13.095 3.37131 13.7448 4.02091 13.7448 4.81931V5.11883L9.24113 8.03979C8.51121 8.51291 7.52641 8.51883 6.78977 8.05499L2.12305 5.11467V4.81931C2.12305 4.02091 2.77281 3.37131 3.57121 3.37131H12.2966Z" fill="#FF6F61"/>
</svg>
