<svg width="17" height="16" viewBox="0 0 17 16" fill="none" xmlns="http://www.w3.org/2000/svg">
<path fill-rule="evenodd" clip-rule="evenodd" d="M7.16201 8.53164L7.26489 8.5966C7.73129 8.89036 8.27545 9.03708 8.81945 9.03708C9.34297 9.03708 9.86569 8.89932 10.3196 8.62796L13.7521 12.4748C13.559 12.5704 13.3427 12.6254 13.1131 12.6254H4.38761C4.12937 12.6254 3.88713 12.5568 3.67689 12.4377L7.16201 8.53164ZM14.5612 5.88163V11.1771C14.5612 11.5147 14.4441 11.8248 14.2499 12.0714L10.8655 8.27843L14.5612 5.88163ZM2.93945 5.87124L6.61289 8.1858L3.20281 12.0076C3.03737 11.7722 2.93945 11.4861 2.93945 11.1772V5.87124ZM13.1131 3.37131C13.9115 3.37131 14.5612 4.02091 14.5612 4.81931V5.11883L10.0575 8.03979C9.32761 8.51291 8.34281 8.51883 7.60617 8.05499L2.93945 5.11467V4.81931C2.93945 4.02091 3.58921 3.37131 4.38761 3.37131H13.1131Z" fill="black" fill-opacity="0.8"/>
</svg>
