<svg width="32" height="32" viewBox="0 0 32 32" fill="none" xmlns="http://www.w3.org/2000/svg">
<circle cx="16" cy="16" r="16" fill="#FC5258"/>
<path fill-rule="evenodd" clip-rule="evenodd" d="M9.34956 9.51815C9.05844 9.89252 9.0849 10.4339 9.42896 10.7779L14.6963 16.0451L9.42893 21.3124C9.05624 21.6851 9.05624 22.2894 9.42896 22.662L9.51885 22.7414C9.8932 23.0325 10.4345 23.006 10.7785 22.662L16.0458 17.3947L21.3131 22.662C21.6858 23.0347 22.29 23.0347 22.6627 22.662L22.7421 22.5721C23.0332 22.1977 23.0067 21.6564 22.6627 21.3124L17.3953 16.0451L22.6627 10.7779C23.0354 10.4052 23.0354 9.80092 22.6627 9.42825L22.5728 9.34886C22.1984 9.05777 21.6571 9.08424 21.3131 9.42829L16.0458 14.6956L10.7785 9.42827C10.4058 9.05557 9.80159 9.05557 9.42891 9.42829L9.34956 9.51815Z" fill="white"/>
</svg>
