<svg width="25" height="24" viewBox="0 0 25 24" fill="none" xmlns="http://www.w3.org/2000/svg">
<path fill-rule="evenodd" clip-rule="evenodd" d="M15.9276 21L21.1836 15.744V8.256L15.9276 3H8.43959L3.18359 8.256V15.744L8.43959 21H15.9276ZM13.1676 12.984H11.1996V6.984H13.1676V12.984ZM12.1836 17.304C11.8316 17.304 11.5236 17.172 11.2596 16.908C10.9956 16.644 10.8636 16.336 10.8636 15.984C10.8636 15.632 10.9956 15.332 11.2596 15.084C11.5236 14.836 11.8316 14.712 12.1836 14.712C12.5356 14.712 12.8436 14.836 13.1076 15.084C13.3716 15.332 13.5036 15.632 13.5036 15.984C13.5036 16.336 13.3716 16.644 13.1076 16.908C12.8436 17.172 12.5356 17.304 12.1836 17.304Z" fill="black" fill-opacity="0.3"/>
</svg>
