<svg width="25" height="24" viewBox="0 0 25 24" fill="none" xmlns="http://www.w3.org/2000/svg">
<path fill-rule="evenodd" clip-rule="evenodd" d="M10.9247 2.25825C8.42995 2.77912 6.39834 4.80424 5.86937 7.29788C5.41977 9.41961 5.97464 11.5495 7.39092 13.1417C7.96351 13.7861 8.31282 14.5637 8.42737 15.3741H16.2726C16.391 14.5676 16.7506 13.7775 17.3395 13.1055C18.3985 11.8981 19.0183 10.348 19.0183 8.74167C19.0183 4.53449 15.1226 1.37449 10.9247 2.25825ZM16.2179 9.29441C15.9124 9.29441 15.6652 9.04721 15.6652 8.74171C15.6652 6.91305 14.1771 5.42551 12.3485 5.42551C12.043 5.42551 11.7958 5.17831 11.7958 4.87281C11.7958 4.56732 12.043 4.32012 12.3485 4.32012C14.7871 4.32012 16.7706 6.30368 16.7706 8.74171C16.7706 9.04721 16.5234 9.29441 16.2179 9.29441ZM8.48014 17.0322V16.4795H16.2179V17.0322C16.2179 17.7691 15.7316 18.3878 15.0654 18.6031C14.8425 19.9048 13.7133 20.9748 12.349 20.9748C10.9848 20.9748 9.85555 19.9048 9.63263 18.6031C8.96651 18.3878 8.48014 17.7691 8.48014 17.0322Z" fill="#21BF55"/>
</svg>
