<svg width="25" height="24" viewBox="0 0 25 24" fill="none" xmlns="http://www.w3.org/2000/svg">
<path fill-rule="evenodd" clip-rule="evenodd" d="M11.2977 2.25825C8.803 2.77912 6.77139 4.80424 6.24242 7.29788C5.79282 9.41961 6.34769 11.5495 7.76396 13.1417C8.33656 13.7861 8.68587 14.5637 8.80042 15.3741H16.6456C16.7641 14.5676 17.1236 13.7775 17.7126 13.1055C18.7715 11.8981 19.3913 10.348 19.3913 8.74167C19.3913 4.53449 15.4956 1.37449 11.2977 2.25825ZM16.591 9.29441C16.2855 9.29441 16.0383 9.04721 16.0383 8.74171C16.0383 6.91305 14.5502 5.42551 12.7215 5.42551C12.416 5.42551 12.1688 5.17831 12.1688 4.87281C12.1688 4.56732 12.416 4.32012 12.7215 4.32012C15.1601 4.32012 17.1437 6.30368 17.1437 8.74171C17.1437 9.04721 16.8965 9.29441 16.591 9.29441ZM8.85319 17.0322V16.4795H16.591V17.0322C16.591 17.7691 16.1046 18.3878 15.4385 18.6031C15.2156 19.9048 14.0864 20.9748 12.7221 20.9748C11.3578 20.9748 10.2286 19.9048 10.0057 18.6031C9.33956 18.3878 8.85319 17.7691 8.85319 17.0322Z" fill="#F4BF38"/>
</svg>
