<svg width="25" height="24" viewBox="0 0 25 24" fill="none" xmlns="http://www.w3.org/2000/svg">
<path fill-rule="evenodd" clip-rule="evenodd" d="M12.9082 3C7.9458 3 3.9082 7.03759 3.9082 12C3.9082 16.9624 7.9458 21 12.9082 21C17.8706 21 21.9082 16.9624 21.9082 12C21.9082 7.03759 17.8706 3 12.9082 3ZM17.9383 9.79215L12.1864 15.4989C11.8481 15.8373 11.3067 15.8598 10.9458 15.5215L7.90068 12.747C7.53978 12.4087 7.51723 11.8448 7.83302 11.4839C8.17136 11.123 8.73527 11.1004 9.09617 11.4388L11.5097 13.6493L16.6526 8.50644C17.0135 8.14554 17.5774 8.14554 17.9383 8.50644C18.2992 8.86734 18.2992 9.43125 17.9383 9.79215Z" fill="#FF6F61"/>
</svg>
