<svg width="16" height="16" viewBox="0 0 16 16" fill="none" xmlns="http://www.w3.org/2000/svg">
<path d="M8.46542 2.50001C7.34418 2.49839 6.24739 2.82765 5.31242 3.44654C5.16725 3.54256 5.06618 3.69233 5.03144 3.86287C4.99669 4.03342 5.03112 4.21079 5.12715 4.35595C5.22318 4.50111 5.37294 4.60218 5.54348 4.63693C5.71403 4.67167 5.8914 4.63724 6.03656 4.54122C6.75683 4.0646 7.60173 3.81111 8.46542 3.81251C10.8964 3.81251 12.8742 5.79042 12.8742 8.22128C12.8742 10.6521 10.8964 12.63 8.4654 12.63C6.0344 12.63 4.05663 10.6523 4.05663 8.22128C4.05662 8.07112 4.06415 7.92106 4.07919 7.77166L4.38902 8.21417C4.48885 8.35674 4.64122 8.45382 4.81263 8.48405C4.98403 8.51427 5.16042 8.47517 5.303 8.37534C5.44557 8.27552 5.54265 8.12314 5.57288 7.95174C5.6031 7.78033 5.564 7.60394 5.46417 7.46137L4.32293 5.83143C4.2735 5.76083 4.21065 5.70067 4.13796 5.65436C4.06528 5.60805 3.98418 5.57652 3.89931 5.56155C3.81444 5.54659 3.72745 5.54848 3.64331 5.56714C3.55917 5.58579 3.47953 5.62083 3.40894 5.67027L1.77903 6.81157C1.63675 6.91152 1.53995 7.06384 1.50989 7.2351C1.47982 7.40636 1.51895 7.58255 1.61869 7.72498C1.71842 7.86741 1.8706 7.96444 2.04182 7.99476C2.21303 8.02508 2.38928 7.98622 2.53186 7.8867L2.76587 7.72285C2.75167 7.88782 2.74399 8.05396 2.74399 8.22128C2.74399 11.376 5.31056 13.9425 8.46529 13.9425C11.62 13.9425 14.1867 11.376 14.1867 8.22128C14.1867 5.06654 11.6202 2.50001 8.46542 2.50001V2.50001Z" fill="black" fill-opacity="0.8"/>
</svg>
