<svg width="17" height="16" viewBox="0 0 17 16" fill="none" xmlns="http://www.w3.org/2000/svg">
<g clip-path="url(#clip0)">
<path d="M9.28183 2.50001C8.16059 2.49839 7.06379 2.82765 6.12882 3.44654C5.98366 3.54256 5.88259 3.69233 5.84784 3.86287C5.8131 4.03342 5.84753 4.21079 5.94356 4.35595C6.03958 4.50111 6.18934 4.60218 6.35989 4.63693C6.53044 4.67167 6.7078 4.63724 6.85297 4.54122C7.57324 4.0646 8.41814 3.81111 9.28183 3.81251C11.7128 3.81251 13.6906 5.79042 13.6906 8.22128C13.6906 10.6521 11.7128 12.63 9.2818 12.63C6.85081 12.63 4.87303 10.6523 4.87303 8.22128C4.87302 8.07112 4.88055 7.92106 4.89559 7.77166L5.20542 8.21417C5.30525 8.35674 5.45763 8.45382 5.62903 8.48405C5.80044 8.51427 5.97683 8.47517 6.1194 8.37534C6.26198 8.27552 6.35906 8.12314 6.38928 7.95174C6.41951 7.78033 6.38041 7.60394 6.28058 7.46137L5.13933 5.83143C5.0899 5.76083 5.02705 5.70067 4.95437 5.65436C4.88168 5.60805 4.80059 5.57652 4.71572 5.56155C4.63085 5.54659 4.54386 5.54848 4.45972 5.56714C4.37558 5.58579 4.29594 5.62083 4.22534 5.67027L2.59544 6.81157C2.45316 6.91152 2.35636 7.06384 2.32629 7.2351C2.29623 7.40636 2.33536 7.58255 2.43509 7.72498C2.53483 7.86741 2.68701 7.96444 2.85822 7.99476C3.02944 8.02508 3.20568 7.98622 3.34826 7.8867L3.58227 7.72285C3.56808 7.88782 3.5604 8.05396 3.5604 8.22128C3.5604 11.376 6.12696 13.9425 9.28169 13.9425C12.4364 13.9425 15.0031 11.376 15.0031 8.22128C15.0031 5.06654 12.4366 2.50001 9.28183 2.50001V2.50001Z" fill="#FF6F61"/>
</g>
<defs>
<clipPath id="clip0">
<rect width="14" height="14" fill="white" transform="translate(1.81641 1)"/>
</clipPath>
</defs>
</svg>
