<svg width="17" height="16" viewBox="0 0 17 16" fill="none" xmlns="http://www.w3.org/2000/svg">
<path fill-rule="evenodd" clip-rule="evenodd" d="M3.49805 8C3.49805 8.16864 3.50995 8.36035 3.53311 8.55334C3.56149 8.79001 3.3501 8.98712 3.11499 8.94006L2.39273 8.79568C2.23984 8.76501 2.1254 8.63785 2.11139 8.48257C2.10086 8.36539 2.0918 8.21222 2.0918 8.01401V8C2.0918 4.70236 4.79416 2 8.0918 2C9.65268 2 11.1106 2.60471 12.1723 3.59604L12.5168 3.25858C12.6082 3.16721 12.7419 3.13205 12.8613 3.16721C12.9879 3.20236 13.0793 3.30783 13.1074 3.43436C13.0777 3.28641 13.5924 5.86902 13.6067 5.93988C13.6586 6.21655 13.3801 6.41742 13.1917 6.35471C13.3398 6.38446 11.0149 5.63528 10.9441 5.62109C10.8176 5.59299 10.7192 5.50153 10.677 5.38205C10.6418 5.25543 10.677 5.12186 10.7683 5.03049L11.1738 4.61795C10.3652 3.87967 9.26596 3.40625 8.0918 3.40625C5.57455 3.40625 3.49805 5.48276 3.49805 8ZM13.0686 7.05618L13.793 7.20377C13.9458 7.23498 14.0598 7.36261 14.0731 7.51797C14.0861 7.67004 14.0918 7.82303 14.0918 7.97885V8C14.0918 11.2976 11.3894 14 8.0918 14C6.52386 14 5.06598 13.3719 4.00433 12.3804L3.66678 12.7179C3.59152 12.8016 3.46902 12.8461 3.32227 12.8093C3.19574 12.7742 3.10428 12.6687 3.07626 12.5421C3.08494 12.5852 3.04735 12.3984 2.98938 12.1102C2.84845 11.4097 2.58705 10.1103 2.57693 10.0601C2.55588 9.9476 2.59103 9.82107 2.67545 9.74371C2.75272 9.65939 2.87228 9.62424 2.99185 9.64529C2.84381 9.61554 5.1687 10.3646 5.23947 10.3789C5.366 10.407 5.46442 10.4984 5.50662 10.618C5.54178 10.7446 5.50662 10.8781 5.41525 10.9695L5.00977 11.375C5.81836 12.1203 6.91763 12.5938 8.0918 12.5938C10.609 12.5938 12.6855 10.5172 12.6855 8C12.6855 7.84793 12.6744 7.64844 12.6493 7.44327C12.6204 7.2055 12.8332 7.00821 13.0686 7.05618Z" fill="black" fill-opacity="0.3"/>
</svg>
