<svg width="16" height="16" viewBox="0 0 16 16" fill="none" xmlns="http://www.w3.org/2000/svg">
<path fill-rule="evenodd" clip-rule="evenodd" d="M3.40625 8C3.40625 8.16864 3.41815 8.36035 3.44131 8.55334C3.4697 8.79001 3.2583 8.98712 3.02319 8.94006L2.30093 8.79568C2.14804 8.76501 2.0336 8.63785 2.01959 8.48257C2.00906 8.36539 2 8.21222 2 8.01401V8C2 4.70236 4.70236 2 8 2C9.56088 2 11.0188 2.60471 12.0805 3.59604L12.425 3.25858C12.5164 3.16721 12.6501 3.13205 12.7695 3.16721C12.8961 3.20236 12.9875 3.30783 13.0156 3.43436C12.9859 3.28641 13.5006 5.86902 13.5149 5.93988C13.5668 6.21655 13.2883 6.41742 13.0999 6.35471C13.248 6.38446 10.9231 5.63528 10.8523 5.62109C10.7258 5.59299 10.6274 5.50153 10.5852 5.38205C10.55 5.25543 10.5852 5.12186 10.6765 5.03049L11.082 4.61795C10.2734 3.87967 9.17416 3.40625 8 3.40625C5.48276 3.40625 3.40625 5.48276 3.40625 8ZM12.9768 7.05618L13.7012 7.20377C13.854 7.23498 13.968 7.36261 13.9813 7.51797C13.9943 7.67004 14 7.82303 14 7.97885V8C14 11.2976 11.2976 14 8 14C6.43207 14 4.97418 13.3719 3.91254 12.3804L3.57498 12.7179C3.49973 12.8016 3.37723 12.8461 3.23047 12.8093C3.10394 12.7742 3.01248 12.6687 2.98447 12.5421C2.99314 12.5852 2.95555 12.3984 2.89758 12.1102C2.75665 11.4097 2.49526 10.1103 2.48514 10.0601C2.46408 9.9476 2.49924 9.82107 2.58365 9.74371C2.66092 9.65939 2.78049 9.62424 2.90005 9.64529C2.75201 9.61554 5.0769 10.3646 5.14767 10.3789C5.2742 10.407 5.37262 10.4984 5.41483 10.618C5.44998 10.7446 5.41483 10.8781 5.32346 10.9695L4.91797 11.375C5.72656 12.1203 6.82584 12.5938 8 12.5938C10.5172 12.5938 12.5938 10.5172 12.5938 8C12.5938 7.84793 12.5826 7.64844 12.5575 7.44327C12.5286 7.2055 12.7414 7.00821 12.9768 7.05618Z" fill="black" fill-opacity="0.8"/>
</svg>
