<svg width="17" height="16" viewBox="0 0 17 16" fill="none" xmlns="http://www.w3.org/2000/svg">
<path d="M14.9802 11.2646L9.26808 1.95255C9.03131 1.5667 8.6226 1.33334 8.18382 1.33334C7.74502 1.33334 7.33627 1.5667 7.09953 1.95255L1.38699 11.2646C1.13315 11.6782 1.1156 12.2035 1.34167 12.6345C1.56731 13.0653 2.00053 13.3333 2.47122 13.3333H13.8959C14.3666 13.3333 14.7998 13.0655 15.0255 12.6345C15.2516 12.2035 15.234 11.6782 14.9802 11.2646ZM7.46667 5.11823C7.46667 4.70874 7.7848 4.37694 8.17686 4.37694C8.56899 4.37694 8.88708 4.70874 8.88708 5.11823V8.29893C8.88708 8.70842 8.56899 9.04022 8.17686 9.04022C7.7848 9.04022 7.46667 8.70842 7.46667 8.29893V5.11823V5.11823ZM8.16349 11.7251C7.67339 11.7251 7.27574 11.3102 7.27574 10.7984C7.27574 10.2866 7.67339 9.87181 8.16349 9.87181C8.65361 9.87181 9.05126 10.2866 9.05126 10.7984C9.05123 11.3102 8.65361 11.7251 8.16349 11.7251Z" fill="black" fill-opacity="0.8"/>
</svg>
