<svg width="17" height="16" viewBox="0 0 17 16" fill="none" xmlns="http://www.w3.org/2000/svg">
<path d="M14.8884 11.2646L9.17629 1.95254C8.93952 1.56669 8.5308 1.33333 8.09203 1.33333C7.65322 1.33333 7.24448 1.56669 7.00774 1.95254L1.29519 11.2646C1.04136 11.6782 1.02381 12.2035 1.24987 12.6345C1.47551 13.0652 1.90873 13.3333 2.37942 13.3333H13.8041C14.2748 13.3333 14.708 13.0655 14.9337 12.6345C15.1598 12.2035 15.1422 11.6782 14.8884 11.2646ZM7.37488 5.11821C7.37488 4.70872 7.693 4.37692 8.08507 4.37692C8.47719 4.37692 8.79529 4.70872 8.79529 5.11821V8.29891C8.79529 8.7084 8.47719 9.0402 8.08507 9.0402C7.693 9.0402 7.37488 8.7084 7.37488 8.29891V5.11821V5.11821ZM8.07169 11.725C7.58159 11.725 7.18394 11.3102 7.18394 10.7984C7.18394 10.2866 7.58159 9.8718 8.07169 9.8718C8.56182 9.8718 8.95946 10.2866 8.95946 10.7984C8.95943 11.3102 8.56182 11.725 8.07169 11.725Z" fill="black" fill-opacity="0.3"/>
</svg>
