<svg width="25" height="24" viewBox="0 0 25 24" fill="none" xmlns="http://www.w3.org/2000/svg">
<path fill-rule="evenodd" clip-rule="evenodd" d="M12.0918 3C7.12939 3 3.0918 7.03759 3.0918 12C3.0918 16.9624 7.12939 21 12.0918 21C17.0542 21 21.0918 16.9624 21.0918 12C21.0918 7.03759 17.0542 3 12.0918 3ZM17.1219 9.79215L11.37 15.4989C11.0316 15.8373 10.4903 15.8598 10.1294 15.5215L7.08428 12.747C6.72338 12.4087 6.70082 11.8448 7.01661 11.4839C7.35495 11.123 7.91886 11.1004 8.27977 11.4388L10.6933 13.6493L15.8362 8.50644C16.1971 8.14554 16.761 8.14554 17.1219 8.50644C17.4828 8.86734 17.4828 9.43125 17.1219 9.79215Z" fill="#21BF55"/>
</svg>
