<svg width="17" height="16" viewBox="0 0 17 16" fill="none" xmlns="http://www.w3.org/2000/svg">
<path fill-rule="evenodd" clip-rule="evenodd" d="M14.5063 8.46715C14.703 8.66391 14.8164 8.93069 14.8164 9.21699C14.8164 9.63002 14.5801 9.99256 14.2281 10.1698C14.3014 10.316 14.34 10.4775 14.34 10.6462C14.34 11.0597 14.1033 11.4222 13.7512 11.5994C13.8603 11.8166 13.8922 12.0667 13.8374 12.315C13.7307 12.7975 13.2767 13.1472 12.7579 13.1472H8.38516C8.07264 13.1472 7.58197 13.0486 7.1942 12.8657V7.75971L8.65346 4.75846V3.38097C8.65346 2.84189 9.08116 2.66666 9.57612 2.66666C10.1273 2.66666 11.0053 3.53892 11.0053 4.5722C11.0053 5.1746 10.8059 5.77412 10.6605 6.21092C10.6487 6.24667 10.6371 6.28133 10.6261 6.31481H13.5687C14.2099 6.31481 14.7554 6.95223 14.8112 7.55773C14.8421 7.89738 14.7288 8.22372 14.5063 8.46715ZM2.81641 8.23541C2.81641 7.57895 3.35091 7.04445 4.00737 7.04445H6.46456V12.9964C6.26495 13.147 5.70475 13.2375 5.43654 13.2375H4.00737C3.35091 13.2375 2.81641 12.703 2.81641 12.0465V8.23541Z" fill="black" fill-opacity="0.8"/>
</svg>
