<svg width="16" height="16" viewBox="0 0 16 16" fill="none" xmlns="http://www.w3.org/2000/svg">
<path fill-rule="evenodd" clip-rule="evenodd" d="M13.6899 8.46715C13.8866 8.66391 14 8.93069 14 9.21699C14 9.63002 13.7637 9.99256 13.4117 10.1698C13.485 10.316 13.5236 10.4775 13.5236 10.6462C13.5236 11.0597 13.2868 11.4222 12.9348 11.5994C13.0439 11.8166 13.0758 12.0667 13.021 12.315C12.9143 12.7975 12.4603 13.1472 11.9415 13.1472H7.56875C7.25624 13.1472 6.76556 13.0486 6.37779 12.8657V7.75971L7.83705 4.75846V3.38097C7.83705 2.84189 8.26476 2.66666 8.75972 2.66666C9.31091 2.66666 10.1889 3.53892 10.1889 4.5722C10.1889 5.1746 9.98945 5.77412 9.84414 6.21092C9.83225 6.24667 9.82071 6.28133 9.80969 6.31481H12.7523C13.3935 6.31481 13.939 6.95223 13.9948 7.55773C14.0257 7.89738 13.9124 8.22372 13.6899 8.46715ZM2 8.23541C2 7.57895 2.53451 7.04445 3.19096 7.04445H5.64816V12.9964C5.44854 13.147 4.88834 13.2375 4.62013 13.2375H3.19096C2.53451 13.2375 2 12.703 2 12.0465V8.23541Z" fill="#FF6F61"/>
</svg>
